<svg width="398" height="261" viewBox="0 0 398 261" fill="none" xmlns="http://www.w3.org/2000/svg">
<path d="M378.474 0H19.5261C8.75911 0 0 7.83871 0 17.4743V243.525C0 253.161 8.75911 260.999 19.5261 260.999H92.9221C96.3642 260.999 99.1541 258.503 99.1541 255.422C99.1541 252.342 96.365 249.845 92.9221 249.845H19.5261C15.6316 249.845 12.4632 247.01 12.4632 243.524V17.4743C12.4632 13.989 15.6316 11.1535 19.5261 11.1535H378.474C382.368 11.1535 385.537 13.989 385.537 17.4743V243.525C385.537 247.01 382.368 249.846 378.474 249.846H119.74C116.298 249.846 113.508 252.342 113.508 255.423C113.508 258.503 116.297 261 119.74 261H378.474C389.241 261 398 253.161 398 243.526V17.4743C398 7.83871 389.241 0 378.474 0Z" fill="black"/>
<path d="M351.885 29.7436H305.355C301.913 29.7436 299.123 32.2397 299.123 35.3207C299.123 38.4018 301.912 40.8979 305.355 40.8979H351.885C352.113 40.8979 352.3 41.0655 352.3 41.2693V219.73C352.3 219.934 352.113 220.101 351.885 220.101H46.1151C45.8866 220.101 45.7 219.934 45.7 219.73V41.2693C45.7 41.0648 45.8874 40.8979 46.1151 40.8979H278.49C281.932 40.8979 284.722 38.4018 284.722 35.3207C284.722 32.2397 281.932 29.7436 278.49 29.7436H46.1151C39.0133 29.7436 33.2361 34.9138 33.2361 41.2693V219.73C33.2361 226.085 39.0133 231.256 46.1151 231.256H351.886C358.987 231.256 364.765 226.085 364.765 219.73V41.2693C364.764 34.9138 358.987 29.7436 351.885 29.7436Z" fill="black"/>
<path d="M161.253 141.708C171.926 133.062 178.643 120.572 178.643 106.704C178.643 80.6686 154.974 59.4864 125.881 59.4864C96.7871 59.4864 73.1185 80.6679 73.1185 106.704C73.1185 120.572 79.8356 133.062 90.5093 141.708L73.452 186.45C72.5666 188.776 73.4847 191.347 75.7157 192.781C77.9466 194.215 80.9612 194.173 83.1424 192.677L94.745 184.719L98.4934 197.365C99.1969 199.74 101.556 201.423 104.299 201.508C104.372 201.51 104.446 201.512 104.518 201.512C107.174 201.512 109.551 200 110.415 197.736L125.882 157.165L141.348 197.736C142.212 200 144.588 201.512 147.245 201.512C147.318 201.512 147.391 201.51 147.464 201.508C150.209 201.423 152.567 199.74 153.27 197.365L157.018 184.719L168.621 192.677C170.812 194.18 173.937 194.195 176.146 192.714C178.283 191.281 179.172 188.712 178.309 186.45L161.253 141.708ZM105.264 176.702C104.476 174.043 103.937 171.21 100.72 170.039C98.6154 169.272 96.3098 169.631 94.5103 170.826C93.6288 171.412 92.7659 172.023 91.8945 172.62L101.132 148.39C105.256 150.358 109.703 151.845 114.384 152.78L105.264 176.702ZM125.881 142.769C103.66 142.769 85.5825 126.591 85.5825 106.705C85.5825 86.8196 103.66 70.6413 125.881 70.6413C148.101 70.6413 166.179 86.8196 166.179 106.705C166.179 126.591 148.102 142.769 125.881 142.769ZM157.251 170.826C155.452 169.631 153.146 169.272 151.041 170.039C147.825 171.21 147.286 174.043 146.497 176.702L137.378 152.78C142.057 151.845 146.506 150.358 150.629 148.39L159.867 172.62C158.996 172.023 158.134 171.412 157.251 170.826Z" fill="black"/>
<path d="M125.881 77.3328C107.783 77.3328 93.0605 90.5093 93.0605 106.704C93.0605 122.899 107.784 136.076 125.881 136.076C143.977 136.076 158.701 122.899 158.701 106.704C158.701 90.5093 143.978 77.3328 125.881 77.3328ZM125.881 124.922C114.655 124.922 105.524 116.75 105.524 106.704C105.524 96.6582 114.655 88.4863 125.881 88.4863C137.106 88.4863 146.238 96.6582 146.238 106.704C146.238 116.75 137.106 124.922 125.881 124.922Z" fill="black"/>
<path d="M318.649 113.025H305.355C301.913 113.025 299.123 115.521 299.123 118.602C299.123 121.683 301.912 124.179 305.355 124.179H318.649C322.092 124.179 324.881 121.683 324.881 118.602C324.881 115.521 322.092 113.025 318.649 113.025Z" fill="black"/>
<path d="M232.236 148.718H212.295C208.853 148.718 206.063 151.214 206.063 154.295C206.063 157.375 208.852 159.872 212.295 159.872H232.236C235.678 159.872 238.468 157.376 238.468 154.295C238.467 151.214 235.678 148.718 232.236 148.718Z" fill="black"/>
<path d="M285.413 113.025H265.472C262.03 113.025 259.24 115.521 259.24 118.602C259.24 121.683 262.029 124.179 265.472 124.179H285.413C288.855 124.179 291.645 121.683 291.645 118.602C291.645 115.521 288.855 113.025 285.413 113.025Z" fill="black"/>
<path d="M245.53 113.025H212.294C208.852 113.025 206.062 115.521 206.062 118.602C206.062 121.683 208.851 124.179 212.294 124.179H245.53C248.972 124.179 251.762 121.683 251.762 118.602C251.762 115.521 248.972 113.025 245.53 113.025Z" fill="black"/>
<path d="M318.65 148.718H252.178C248.736 148.718 245.946 151.214 245.946 154.295C245.946 157.375 248.735 159.872 252.178 159.872H318.65C322.092 159.872 324.881 157.376 324.881 154.295C324.881 151.214 322.092 148.718 318.65 148.718Z" fill="black"/>
<path d="M308.679 59.4874H222.265C213.331 59.4874 206.063 65.9926 206.063 73.9871C206.063 81.9816 213.332 88.4867 222.265 88.4867H308.679C317.613 88.4867 324.881 81.9816 324.881 73.9871C324.881 65.9926 317.613 59.4874 308.679 59.4874ZM308.679 77.3332H222.265C220.204 77.3332 218.526 75.832 218.526 73.9871C218.526 72.1422 220.204 70.6409 222.265 70.6409H308.679C310.74 70.6409 312.418 72.1422 312.418 73.9871C312.418 75.832 310.74 77.3332 308.679 77.3332Z" fill="black"/>
<path d="M265.471 184.41H212.294C208.852 184.41 206.062 186.906 206.062 189.987C206.062 193.068 208.851 195.564 212.294 195.564H265.471C268.914 195.564 271.703 193.068 271.703 189.987C271.703 186.906 268.914 184.41 265.471 184.41Z" fill="black"/>
<path d="M318.65 184.41H285.413C281.971 184.41 279.181 186.906 279.181 189.987C279.181 193.068 281.971 195.564 285.413 195.564H318.65C322.092 195.564 324.882 193.068 324.882 189.987C324.881 186.906 322.092 184.41 318.65 184.41Z" fill="black"/>
</svg>
