<svg width="376" height="262" viewBox="0 0 376 262" fill="none" xmlns="http://www.w3.org/2000/svg">
<path d="M371.547 246.014L327.422 215.253C339.664 204.047 347.033 190.106 347.033 174.984C346.994 157.307 336.899 140.362 318.962 127.865C301.025 115.369 276.712 108.342 251.353 108.326C226.005 108.353 201.706 115.385 183.783 127.88C165.859 140.375 155.772 157.314 155.733 174.984C155.756 192.666 165.84 209.619 183.772 222.123C201.704 234.628 226.019 241.663 251.383 241.685C273.104 241.685 293.102 236.547 309.147 228.013L353.273 258.753C354.464 259.593 355.882 260.26 357.446 260.715C359.009 261.17 360.686 261.404 362.381 261.404C364.075 261.404 365.752 261.17 367.315 260.715C368.879 260.26 370.297 259.593 371.488 258.753C372.695 257.921 373.654 256.93 374.311 255.838C374.967 254.747 375.308 253.576 375.313 252.392C375.319 251.208 374.989 250.036 374.343 248.941C373.696 247.847 372.747 246.852 371.547 246.014ZM181.554 174.984C181.578 162.079 188.942 149.707 202.033 140.582C215.123 131.456 232.87 126.322 251.383 126.306C269.903 126.306 287.664 131.435 300.759 140.564C313.855 149.693 321.211 162.074 321.211 174.984C321.211 187.895 313.855 200.276 300.759 209.405C287.664 218.534 269.903 223.663 251.383 223.663C232.873 223.641 215.13 218.506 202.041 209.381C188.953 200.257 181.586 187.888 181.554 174.984ZM291.349 67.7881C291.349 72.7595 285.554 76.7781 278.423 76.7781H149.255C145.835 76.7781 142.554 75.8309 140.136 74.145C137.718 72.459 136.359 70.1724 136.359 67.7881C136.359 65.4038 137.718 63.1171 140.136 61.4312C142.554 59.7452 145.835 58.7981 149.255 58.7981H278.423C285.554 58.7981 291.349 62.8166 291.349 67.7881ZM43.7691 243.383H129.881C133.158 243.538 136.228 244.555 138.47 246.228C140.712 247.9 141.96 250.104 141.96 252.394C141.96 254.683 140.712 256.887 138.47 258.56C136.228 260.233 133.158 261.25 129.881 261.405H43.7691C20.0571 261.405 0.683426 247.94 0.683426 231.369V71.1645C0.683426 67.1252 2.76343 63.2102 6.47771 60.1031L71.6709 6.03877C73.8571 4.22499 76.5855 2.76614 79.665 1.76428C82.7446 0.762434 86.101 0.241787 89.4994 0.23877H299.936C323.678 0.23877 343.022 13.7031 343.022 30.2745V94.7788C343.022 97.1686 341.66 99.4605 339.236 101.15C336.812 102.84 333.524 103.789 330.096 103.789C326.668 103.789 323.38 102.84 320.956 101.15C318.532 99.4605 317.17 97.1686 317.17 94.7788V30.2538C317.162 27.0781 315.351 24.0338 312.133 21.7864C308.915 19.5389 304.551 18.2711 299.995 18.2602H110.507V70.3359C110.453 74.1323 108.242 77.7589 104.361 80.4221C100.479 83.0853 95.2426 84.568 89.7966 84.5459H26.5646V231.39C26.5646 237.997 34.2903 243.383 43.7691 243.383ZM84.6857 23.2316L32.4777 66.5245H84.6857V23.2316ZM116.985 158.082C120.413 158.082 123.701 157.132 126.125 155.442C128.549 153.753 129.911 151.461 129.911 149.071C129.911 146.681 128.549 144.389 126.125 142.699C123.701 141.01 120.413 140.06 116.985 140.06H71.76C68.3319 140.06 65.0442 141.01 62.6201 142.699C60.1961 144.389 58.8343 146.681 58.8343 149.071C58.8343 151.461 60.1961 153.753 62.6201 155.442C65.0442 157.132 68.3319 158.082 71.76 158.082H116.985ZM116.985 199.448C120.409 199.448 123.693 198.5 126.115 196.812C128.536 195.124 129.896 192.835 129.896 190.448C129.896 188.061 128.536 185.771 126.115 184.084C123.693 182.396 120.409 181.447 116.985 181.447H71.76C68.3358 181.447 65.0519 182.396 62.6306 184.084C60.2094 185.771 58.8491 188.061 58.8491 190.448C58.8491 192.835 60.2094 195.124 62.6306 196.812C65.0519 198.5 68.3358 199.448 71.76 199.448H116.985ZM129.881 99.4188H71.76C68.3358 99.4188 65.0519 100.367 62.6306 102.055C60.2094 103.743 58.8491 106.032 58.8491 108.419C58.8491 110.806 60.2094 113.095 62.6306 114.783C65.0519 116.471 68.3358 117.42 71.76 117.42H129.881C133.305 117.42 136.589 116.471 139.01 114.783C141.432 113.095 142.792 110.806 142.792 108.419C142.792 106.032 141.432 103.743 139.01 102.055C136.589 100.367 133.305 99.4188 129.881 99.4188Z" fill="black"/>
</svg>
