<svg width="375" height="262" viewBox="0 0 375 262" fill="none" xmlns="http://www.w3.org/2000/svg">
<path d="M370.864 245.775L326.738 215.014C338.981 203.808 346.35 189.867 346.35 174.746C346.31 157.068 336.215 140.123 318.279 127.627C300.342 115.13 276.028 108.104 250.67 108.087C225.322 108.115 201.023 115.146 183.099 127.641C165.175 140.136 155.088 157.075 155.049 174.746C155.073 192.427 165.157 209.38 183.089 221.884C201.021 234.389 225.336 241.424 250.699 241.446C272.421 241.446 292.418 236.309 308.464 227.774L352.59 258.514C353.781 259.354 355.199 260.021 356.762 260.476C358.326 260.931 360.003 261.165 361.697 261.165C363.391 261.165 365.069 260.931 366.632 260.476C368.195 260.021 369.613 259.354 370.805 258.514C372.011 257.682 372.971 256.691 373.627 255.6C374.284 254.508 374.624 253.337 374.63 252.153C374.635 250.97 374.305 249.797 373.659 248.702C373.013 247.608 372.063 246.613 370.864 245.775ZM180.871 174.746C180.894 161.84 188.259 149.468 201.349 140.343C214.44 131.217 232.187 126.084 250.699 126.067C269.219 126.067 286.98 131.196 300.076 140.325C313.171 149.454 320.528 161.835 320.528 174.746C320.528 187.656 313.171 200.038 300.076 209.167C286.98 218.296 269.219 223.424 250.699 223.424C232.189 223.402 214.446 218.267 201.358 209.142C188.269 200.018 180.902 187.649 180.871 174.746ZM290.665 67.5493C290.665 72.5207 284.871 76.5393 277.739 76.5393H148.571C145.151 76.5393 141.871 75.5921 139.453 73.9062C137.034 72.2202 135.675 69.9336 135.675 67.5493C135.675 65.165 137.034 62.8784 139.453 61.1924C141.871 59.5064 145.151 58.5593 148.571 58.5593H277.739C284.871 58.5593 290.665 62.5779 290.665 67.5493ZM43.0857 243.144H129.198C132.474 243.299 135.544 244.316 137.787 245.989C140.029 247.662 141.276 249.866 141.276 252.155C141.276 254.444 140.029 256.649 137.787 258.321C135.544 259.994 132.474 261.011 129.198 261.166H43.0857C19.3737 261.166 0 247.701 0 231.13V70.9257C0 66.8864 2.08 62.9714 5.79428 59.8643L70.9874 5.8C73.1737 3.98622 75.902 2.52737 78.9816 1.52552C82.0612 0.523665 85.4176 0.00301702 88.816 0H299.253C322.994 0 342.338 13.4643 342.338 30.0357V94.54C342.338 96.9298 340.976 99.2217 338.552 100.912C336.128 102.601 332.841 103.551 329.413 103.551C325.984 103.551 322.697 102.601 320.273 100.912C317.849 99.2217 316.487 96.9298 316.487 94.54V30.015C316.479 26.8394 314.668 23.7951 311.45 21.5476C308.231 19.3002 303.867 18.0324 299.312 18.0214H109.824V70.0972C109.769 73.8935 107.559 77.5202 103.678 80.1833C99.796 82.8465 94.5592 84.3293 89.1131 84.3072H25.8811V231.151C25.8811 237.759 33.6069 243.144 43.0857 243.144ZM84.0023 22.9929L31.7943 66.2857H84.0023V22.9929ZM116.302 157.843C119.73 157.843 123.018 156.894 125.442 155.204C127.866 153.514 129.227 151.222 129.227 148.832C129.227 146.442 127.866 144.15 125.442 142.461C123.018 140.771 119.73 139.821 116.302 139.821H71.0766C67.6485 139.821 64.3608 140.771 61.9367 142.461C59.5127 144.15 58.1509 146.442 58.1509 148.832C58.1509 151.222 59.5127 153.514 61.9367 155.204C64.3608 156.894 67.6485 157.843 71.0766 157.843H116.302ZM116.302 199.209C119.726 199.209 123.01 198.261 125.431 196.573C127.852 194.885 129.213 192.596 129.213 190.209C129.213 187.822 127.852 185.533 125.431 183.845C123.01 182.157 119.726 181.209 116.302 181.209H71.0766C67.6524 181.209 64.3685 182.157 61.9472 183.845C59.526 185.533 58.1657 187.822 58.1657 190.209C58.1657 192.596 59.526 194.885 61.9472 196.573C64.3685 198.261 67.6524 199.209 71.0766 199.209H116.302ZM129.198 99.18H71.0766C67.6524 99.18 64.3685 100.128 61.9472 101.816C59.526 103.504 58.1657 105.793 58.1657 108.18C58.1657 110.567 59.526 112.857 61.9472 114.545C64.3685 116.232 67.6524 117.181 71.0766 117.181H129.198C132.622 117.181 135.906 116.232 138.327 114.545C140.748 112.857 142.109 110.567 142.109 108.18C142.109 105.793 140.748 103.504 138.327 101.816C135.906 100.128 132.622 99.18 129.198 99.18Z" fill="white"/>
</svg>
