<svg width="387" height="262" viewBox="0 0 387 262" fill="none" xmlns="http://www.w3.org/2000/svg">
<path d="M358.77 84.1166H27.9611V65.4442H358.77V28.7841C358.77 26.113 357.205 23.5513 354.419 21.6626C351.633 19.7738 347.854 18.7127 343.913 18.7127H42.8183C38.8779 18.7127 35.099 19.7738 32.3127 21.6626C29.5264 23.5513 27.9611 26.113 27.9611 28.7841L27.5749 232.872C27.567 234.196 27.9459 235.508 28.6898 236.732C29.4336 237.956 30.5277 239.069 31.9089 240.005C33.2901 240.941 34.931 241.683 36.7371 242.187C38.5432 242.691 40.4787 242.948 42.432 242.943H316.19C318.001 242.943 319.794 243.184 321.467 243.654C323.14 244.124 324.66 244.812 325.94 245.68C327.221 246.548 328.237 247.578 328.93 248.712C329.623 249.846 329.98 251.062 329.98 252.289C329.98 253.517 329.623 254.732 328.93 255.866C328.237 257 327.221 258.031 325.94 258.899C324.66 259.767 323.14 260.455 321.467 260.925C319.794 261.394 318.001 261.636 316.19 261.636H29.6846C21.809 261.63 14.2587 259.506 8.6926 255.729C3.12652 251.952 -3.9378e-06 246.831 0 241.493L0.386285 20.1429C0.386285 14.8006 3.51689 9.67723 9.0894 5.89971C14.6619 2.12219 22.2199 0 30.1006 0H356.601C364.482 0 372.04 2.12219 377.612 5.89971C383.185 9.67723 386.315 14.8006 386.315 20.1429V213.816C386.151 216.218 384.628 218.483 382.063 220.143C379.498 221.803 376.089 222.729 372.543 222.729C368.997 222.729 365.587 221.803 363.023 220.143C360.458 218.483 358.935 216.218 358.77 213.816V84.1166ZM69.3234 53.9224C67.461 53.9811 65.6003 53.7831 63.854 53.3404C62.1076 52.8976 60.5119 52.2194 59.1633 51.3467C57.8147 50.4739 56.7412 49.4249 56.0077 48.2629C55.2743 47.1009 54.8961 45.8501 54.8961 44.5862C54.8961 43.3223 55.2743 42.0716 56.0077 40.9096C56.7412 39.7476 57.8147 38.6985 59.1633 37.8258C60.5119 36.9531 62.1076 36.2748 63.854 35.8321C65.6003 35.3894 67.461 35.1913 69.3234 35.25C72.8655 35.3616 76.208 36.3939 78.6564 38.1326C81.1048 39.8712 82.471 42.1825 82.471 44.5862C82.471 46.9899 81.1048 49.3012 78.6564 51.0399C76.208 52.7785 72.8655 53.8109 69.3234 53.9224ZM152.018 53.9224C150.156 53.9811 148.295 53.7831 146.549 53.3404C144.802 52.8976 143.207 52.2194 141.858 51.3467C140.51 50.4739 139.436 49.4249 138.703 48.2629C137.969 47.1009 137.591 45.8501 137.591 44.5862C137.591 43.3223 137.969 42.0716 138.703 40.9096C139.436 39.7476 140.51 38.6985 141.858 37.8258C143.207 36.9531 144.802 36.2748 146.549 35.8321C148.295 35.3894 150.156 35.1913 152.018 35.25C155.56 35.3616 158.903 36.3939 161.351 38.1326C163.8 39.8712 165.166 42.1825 165.166 44.5862C165.166 46.9899 163.8 49.3012 161.351 51.0399C158.903 52.7785 155.56 53.8109 152.018 53.9224ZM110.656 53.9224C108.794 53.9811 106.933 53.7831 105.187 53.3404C103.44 52.8976 101.844 52.2194 100.496 51.3467C99.1472 50.4739 98.0737 49.4249 97.3403 48.2629C96.6068 47.1009 96.2287 45.8501 96.2287 44.5862C96.2287 43.3223 96.6068 42.0716 97.3403 40.9096C98.0737 39.7476 99.1472 38.6985 100.496 37.8258C101.844 36.9531 103.44 36.2748 105.187 35.8321C106.933 35.3894 108.794 35.1913 110.656 35.25C114.198 35.3616 117.541 36.3939 119.989 38.1326C122.437 39.8712 123.804 42.1825 123.804 44.5862C123.804 46.9899 122.437 49.3012 119.989 51.0399C117.541 52.7785 114.198 53.8109 110.656 53.9224ZM124.83 122.811C127.742 120.857 135.438 120.857 138.35 122.811C141.262 124.765 141.262 130.929 138.35 133.044L93.392 162.674L137.221 190.813C140.133 192.767 140.519 198.347 137.221 200.542C133.239 203.221 125.097 202.798 122.363 200.985L71.1657 166.34C69.774 165.389 68.993 164.104 68.993 162.764C68.993 161.425 69.774 160.14 71.1657 159.189L124.83 122.811ZM264.368 122.811L318.032 159.189C319.433 160.141 320.22 161.43 320.22 162.774C320.22 164.119 319.433 165.408 318.032 166.36L266.805 200.985C264.101 202.798 256.405 203.946 251.947 200.985C247.758 198.165 249.065 192.364 251.947 190.41L295.984 162.674L250.521 132.741C247.609 130.626 246.658 125.409 250.521 122.811C254.295 120.293 261.456 120.857 264.368 122.811ZM209.248 115.56C210.734 112.941 217.954 111.289 222.56 112.458C226.958 113.565 229.543 117.695 228.325 120.313L179.653 211.178C178.167 213.796 171.243 214.824 167.351 213.857C163.221 212.87 158.734 209.022 160.219 206.404L209.248 115.56Z" fill="white"/>
</svg>
