<svg width="387" height="263" viewBox="0 0 387 263" fill="none" xmlns="http://www.w3.org/2000/svg">
<path d="M359.39 84.6356H28.5806V65.9632H359.39V29.3032C359.39 26.6321 357.824 24.0704 355.038 22.1816C352.252 20.2929 348.473 19.2318 344.533 19.2318H43.4377C39.4974 19.2318 35.7184 20.2929 32.9321 22.1816C30.1459 24.0704 28.5806 26.6321 28.5806 29.3032L28.1943 233.391C28.1864 234.715 28.5654 236.027 29.3092 237.251C30.0531 238.475 31.1471 239.588 32.5283 240.524C33.9095 241.46 35.5505 242.202 37.3566 242.706C39.1627 243.211 41.0982 243.467 43.0514 243.462H316.809C318.62 243.462 320.413 243.703 322.086 244.173C323.759 244.643 325.279 245.331 326.56 246.199C327.84 247.067 328.856 248.097 329.549 249.231C330.242 250.365 330.599 251.581 330.599 252.808C330.599 254.036 330.242 255.251 329.549 256.385C328.856 257.519 327.84 258.55 326.56 259.418C325.279 260.286 323.759 260.974 322.086 261.444C320.413 261.913 318.62 262.155 316.809 262.155H30.304C22.4284 262.149 14.8781 260.025 9.31203 256.248C3.74595 252.471 0.619427 247.351 0.619431 242.012L1.00572 20.6619C1.00572 15.3197 4.13632 10.1963 9.70883 6.41875C15.2813 2.64123 22.8393 0.519043 30.72 0.519043H357.221C365.101 0.519043 372.659 2.64123 378.232 6.41875C383.804 10.1963 386.935 15.3197 386.935 20.6619V214.335C386.77 216.737 385.247 219.002 382.683 220.662C380.118 222.322 376.708 223.248 373.162 223.248C369.616 223.248 366.207 222.322 363.642 220.662C361.077 219.002 359.554 216.737 359.39 214.335V84.6356ZM69.9429 54.4415C68.0804 54.5001 66.2197 54.3021 64.4734 53.8594C62.7271 53.4167 61.1313 52.7384 59.7827 51.8657C58.4341 50.993 57.3606 49.9439 56.6271 48.7819C55.8937 47.6199 55.5155 46.3692 55.5155 45.1053C55.5155 43.8414 55.8937 42.5906 56.6271 41.4286C57.3606 40.2666 58.4341 39.2175 59.7827 38.3448C61.1313 37.4721 62.7271 36.7939 64.4734 36.3511C66.2197 35.9084 68.0804 35.7104 69.9429 35.769C73.4849 35.8806 76.8274 36.913 79.2758 38.6516C81.7243 40.3903 83.0904 42.7016 83.0904 45.1053C83.0904 47.509 81.7243 49.8202 79.2758 51.5589C76.8274 53.2976 73.4849 54.3299 69.9429 54.4415ZM152.638 54.4415C150.775 54.5001 148.915 54.3021 147.168 53.8594C145.422 53.4167 143.826 52.7384 142.478 51.8657C141.129 50.993 140.055 49.9439 139.322 48.7819C138.589 47.6199 138.21 46.3692 138.21 45.1053C138.21 43.8414 138.589 42.5906 139.322 41.4286C140.055 40.2666 141.129 39.2175 142.478 38.3448C143.826 37.4721 145.422 36.7939 147.168 36.3511C148.915 35.9084 150.775 35.7104 152.638 35.769C156.18 35.8806 159.522 36.913 161.971 38.6516C164.419 40.3903 165.785 42.7016 165.785 45.1053C165.785 47.509 164.419 49.8202 161.971 51.5589C159.522 53.2976 156.18 54.3299 152.638 54.4415ZM111.275 54.4415C109.413 54.5001 107.552 54.3021 105.806 53.8594C104.06 53.4167 102.464 52.7384 101.115 51.8657C99.7667 50.993 98.6932 49.9439 97.9597 48.7819C97.2263 47.6199 96.8481 46.3692 96.8481 45.1053C96.8481 43.8414 97.2263 42.5906 97.9597 41.4286C98.6932 40.2666 99.7667 39.2175 101.115 38.3448C102.464 37.4721 104.06 36.7939 105.806 36.3511C107.552 35.9084 109.413 35.7104 111.275 35.769C114.817 35.8806 118.16 36.913 120.608 38.6516C123.057 40.3903 124.423 42.7016 124.423 45.1053C124.423 47.509 123.057 49.8202 120.608 51.5589C118.16 53.2976 114.817 54.3299 111.275 54.4415ZM125.449 123.33C128.361 121.376 136.057 121.376 138.969 123.33C141.881 125.284 141.881 131.448 138.969 133.563L94.0114 163.193L137.84 191.332C140.752 193.286 141.138 198.866 137.84 201.061C133.858 203.74 125.717 203.317 122.983 201.505L71.7851 166.859C70.3934 165.908 69.6124 164.623 69.6124 163.283C69.6124 161.944 70.3934 160.659 71.7851 159.708L125.449 123.33ZM264.987 123.33L318.651 159.708C320.052 160.66 320.839 161.949 320.839 163.293C320.839 164.638 320.052 165.927 318.651 166.879L267.424 201.505C264.72 203.317 257.024 204.466 252.567 201.505C248.377 198.685 249.685 192.883 252.567 190.929L296.603 163.193L251.141 133.26C248.229 131.145 247.278 125.928 251.141 123.33C254.914 120.812 262.075 121.376 264.987 123.33ZM209.867 116.079C211.353 113.46 218.574 111.808 223.179 112.977C227.577 114.084 230.162 118.214 228.944 120.832L180.272 211.697C178.786 214.315 171.863 215.343 167.97 214.376C163.84 213.389 159.353 209.541 160.839 206.923L209.867 116.079Z" fill="black"/>
</svg>
