<svg width="426" height="308" viewBox="0 0 426 308" fill="none" xmlns="http://www.w3.org/2000/svg">
<path d="M34.6399 36.2961C39.0582 36.2961 42.6399 33.1321 42.6399 29.2291C42.6399 25.3261 39.0582 22.1631 34.6399 22.1631C30.2216 22.1631 26.6399 25.3261 26.6399 29.2291C26.6399 33.1321 30.2216 36.2961 34.6399 36.2961Z" fill="white"/>
<path d="M88 36.2961C92.418 36.2961 96 33.1321 96 29.2291C96 25.3261 92.418 22.1631 88 22.1631C83.582 22.1631 80 25.3261 80 29.2291C80 33.1321 83.582 36.2961 88 36.2961Z" fill="white"/>
<path d="M61.3601 36.2961C65.7781 36.2961 69.3601 33.1321 69.3601 29.2291C69.3601 25.3261 65.7781 22.1631 61.3601 22.1631C56.9418 22.1631 53.3601 25.3261 53.3601 29.2291C53.3601 33.1321 56.9418 36.2961 61.3601 36.2961Z" fill="white"/>
<path d="M120 131.767L144 110.567C145.506 109.236 146.353 107.432 146.353 105.55C146.353 103.668 145.506 101.863 144 100.532C142.494 99.2021 140.45 98.4541 138.32 98.4541C136.19 98.4541 134.146 99.2021 132.64 100.532L102.88 126.891C101.39 128.215 100.554 130.006 100.554 131.873C100.554 133.74 101.39 135.531 102.88 136.855L132.64 163.214C133.384 163.876 134.269 164.402 135.243 164.761C136.218 165.119 137.264 165.304 138.32 165.304C139.376 165.304 140.422 165.119 141.397 164.761C142.371 164.402 143.256 163.876 144 163.214C145.49 161.89 146.326 160.099 146.326 158.232C146.326 156.365 145.49 154.574 144 153.25L120 131.767Z" fill="white"/>
<path d="M234.56 163.072C236.059 164.388 238.086 165.127 240.2 165.127C242.313 165.127 244.341 164.388 245.84 163.072L275.68 137.066C277.17 135.742 278.006 133.951 278.006 132.084C278.006 130.217 277.17 128.426 275.68 127.102L245.84 100.744C244.334 99.422 242.295 98.684 240.172 98.69C238.049 98.697 236.016 99.448 234.52 100.779C233.024 102.11 232.188 103.911 232.196 105.786C232.203 107.661 233.054 109.457 234.56 110.778L258.56 131.978L234.56 153.178C233.094 154.499 232.273 156.275 232.273 158.125C232.273 159.975 233.094 161.751 234.56 163.072Z" fill="white"/>
<path d="M208 102.794C207.087 102.327 206.078 102.023 205.032 101.902C203.986 101.781 202.923 101.843 201.904 102.086C200.885 102.329 199.931 102.748 199.096 103.318C198.261 103.888 197.563 104.599 197.04 105.408L167.52 151.2C166.941 152.005 166.553 152.904 166.377 153.845C166.202 154.785 166.244 155.747 166.501 156.673C166.758 157.598 167.224 158.469 167.871 159.231C168.518 159.994 169.334 160.633 170.268 161.11C171.202 161.587 172.236 161.892 173.307 162.007C174.378 162.122 175.464 162.044 176.5 161.778C177.537 161.513 178.501 161.065 179.336 160.461C180.172 159.858 180.86 159.112 181.36 158.267L211.2 112.687C211.758 111.859 212.119 110.939 212.26 109.983C212.4 109.028 212.318 108.057 212.019 107.13C211.719 106.203 211.208 105.341 210.517 104.595C209.826 103.849 208.969 103.236 208 102.794Z" fill="white"/>
<path d="M406.88 200.666C406.408 200.663 405.949 200.533 405.563 200.293C405.177 200.053 404.883 199.715 404.72 199.324C401.537 191.927 397.026 185.031 391.36 178.901C391.092 178.558 390.948 178.152 390.948 177.735C390.948 177.318 391.092 176.912 391.36 176.569C393.797 172.839 394.457 168.407 393.197 164.246C391.937 160.086 388.86 156.537 384.64 154.38L378.64 151.2V22.162C378.64 16.5398 376.111 11.1475 371.611 7.1717C367.11 3.196 361.005 0.962402 354.64 0.962402H24C17.6348 0.962402 11.5303 3.196 7.0294 7.1717C2.5286 11.1475 0 16.5398 0 22.162V201.232C0.0211 205.593 1.9917 209.77 5.4828 212.854C8.9739 215.938 13.7028 217.678 18.64 217.697H128L120 243.844H109.36C101.568 243.848 94.005 246.174 87.894 250.444C81.783 254.714 77.48 260.679 75.68 267.376H56C53.8783 267.376 51.8434 268.12 50.3431 269.446C48.8429 270.771 48 272.568 48 274.442C48 276.317 48.8429 278.114 50.3431 279.439C51.8434 280.765 53.8783 281.509 56 281.509H259.76C259.624 283.197 259.814 284.894 260.32 286.526C260.92 288.599 261.987 290.544 263.458 292.244C264.929 293.944 266.773 295.364 268.88 296.42L285.76 305.041C287.856 306.104 290.168 306.792 292.565 307.065C294.962 307.338 297.396 307.192 299.729 306.634C302.061 306.076 304.247 305.118 306.16 303.814C308.073 302.51 309.677 300.886 310.88 299.034C311.139 298.674 311.512 298.388 311.953 298.212C312.393 298.037 312.882 297.979 313.36 298.045C322.148 299.388 331.132 299.388 339.92 298.045C340.407 297.975 340.906 298.04 341.349 298.229C341.793 298.419 342.16 298.725 342.4 299.105C344.031 301.571 346.368 303.614 349.177 305.029C351.986 306.443 355.167 307.178 358.4 307.161C361.625 307.189 364.801 306.457 367.6 305.041L384.48 296.42C386.576 295.352 388.411 293.927 389.88 292.229C391.35 290.531 392.423 288.593 393.04 286.526C393.677 284.472 393.842 282.326 393.526 280.214C393.21 278.103 392.419 276.068 391.2 274.23C390.925 273.877 390.777 273.458 390.777 273.029C390.777 272.6 390.925 272.181 391.2 271.828C396.848 265.713 401.358 258.843 404.56 251.476C404.713 251.079 405.004 250.735 405.392 250.493C405.78 250.252 406.245 250.126 406.72 250.133C411.594 250.114 416.261 248.396 419.708 245.352C423.154 242.308 425.099 238.185 425.12 233.88V216.637C425.037 212.4 423.083 208.359 419.676 205.376C416.269 202.392 411.677 200.703 406.88 200.666ZM16 22.162C16 20.288 16.8429 18.491 18.3431 17.1655C19.8434 15.8403 21.8783 15.0957 24 15.0957H354.64C356.762 15.0957 358.797 15.8403 360.297 17.1655C361.797 18.491 362.64 20.288 362.64 22.162V43.362H16V22.162ZM18.64 203.564C18.2933 203.564 17.95 203.503 17.6297 203.386C17.3094 203.269 17.0184 203.097 16.7732 202.881C16.5281 202.664 16.3336 202.407 16.201 202.124C16.0683 201.841 16 201.538 16 201.232V57.496H362.64V144.133C358.854 143.245 354.846 143.452 351.203 144.724C347.561 145.996 344.475 148.265 342.4 151.2C342.151 151.548 341.789 151.822 341.361 151.986C340.932 152.15 340.458 152.196 340 152.118C331.205 150.846 322.235 150.846 313.44 152.118C312.981 152.207 312.503 152.165 312.072 152.001C311.642 151.836 311.281 151.556 311.04 151.2C309.838 149.347 308.233 147.723 306.318 146.421C304.402 145.119 302.214 144.164 299.879 143.612C297.544 143.061 295.108 142.922 292.713 143.206C290.317 143.489 288.008 144.189 285.92 145.264L269.04 153.885C266.938 154.929 265.097 156.338 263.626 158.025C262.155 159.713 261.085 161.646 260.48 163.708C259.201 167.874 259.833 172.318 262.24 176.074C262.532 176.408 262.69 176.818 262.69 177.24C262.69 177.662 262.532 178.072 262.24 178.406C256.574 184.536 252.063 191.432 248.88 198.829C248.717 199.22 248.423 199.559 248.037 199.798C247.651 200.038 247.192 200.169 246.72 200.172C242.802 200.177 238.988 201.291 235.84 203.352L18.64 203.564ZM232 243.844H136L144 217.697H228V233.88C228.051 237.5 229.458 241.004 232 243.844ZM251.84 257.977C253.669 261.235 255.754 264.376 258.08 267.376H92.56C94.07 264.568 96.45 262.195 99.423 260.532C102.396 258.869 105.841 257.983 109.36 257.977H251.84ZM409.28 233.88C409.28 234.442 409.027 234.981 408.577 235.379C408.127 235.776 407.517 236 406.88 236C403.154 236.008 399.517 237.011 396.447 238.877C393.378 240.744 391.019 243.386 389.68 246.458C387.123 252.416 383.504 257.975 378.96 262.924C376.617 265.48 375.203 268.602 374.903 271.881C374.603 275.159 375.432 278.442 377.28 281.297C377.409 281.54 377.475 281.806 377.475 282.074C377.475 282.343 377.409 282.608 377.28 282.852C377.21 283.132 377.075 283.397 376.882 283.628C376.689 283.86 376.443 284.052 376.16 284.194L359.52 292.533C359.242 292.67 358.936 292.756 358.62 292.787C358.304 292.818 357.984 292.794 357.679 292.715C357.374 292.636 357.09 292.504 356.843 292.328C356.596 292.151 356.391 291.932 356.24 291.685C354.349 288.837 351.524 286.563 348.139 285.163C344.754 283.762 340.968 283.301 337.28 283.841C330.237 284.901 323.043 284.901 316 283.841C312.304 283.308 308.512 283.779 305.126 285.193C301.74 286.606 298.92 288.895 297.04 291.756C296.708 292.23 296.184 292.574 295.574 292.718C294.965 292.863 294.316 292.796 293.76 292.533L276.88 283.912C276.597 283.77 276.351 283.577 276.158 283.346C275.965 283.114 275.83 282.85 275.76 282.569C275.631 282.326 275.565 282.06 275.565 281.792C275.565 281.523 275.631 281.258 275.76 281.014C277.587 278.153 278.403 274.875 278.103 271.601C277.804 268.326 276.403 265.206 274.08 262.641C269.495 257.705 265.848 252.144 263.28 246.176C261.938 243.185 259.613 240.617 256.605 238.803C253.596 236.99 250.042 236.013 246.4 236C245.763 236 245.153 235.776 244.703 235.379C244.253 234.981 244 234.442 244 233.88V216.637C243.989 216.356 244.043 216.076 244.16 215.814C244.277 215.553 244.453 215.315 244.678 215.116C244.903 214.917 245.172 214.761 245.469 214.658C245.765 214.555 246.082 214.507 246.4 214.517C250.115 214.504 253.739 213.499 256.795 211.632C259.851 209.765 262.195 207.125 263.52 204.058C266.07 198.082 269.719 192.519 274.32 187.593C276.643 185.028 278.044 181.908 278.343 178.634C278.643 175.359 277.827 172.081 276 169.22C275.87 168.964 275.802 168.687 275.802 168.407C275.802 168.127 275.87 167.85 276 167.594C276.065 167.321 276.2 167.065 276.394 166.844C276.588 166.624 276.836 166.445 277.12 166.322L294 157.701C294.393 157.605 294.807 157.605 295.2 157.701C295.6 157.706 295.993 157.798 296.342 157.971C296.692 158.144 296.987 158.391 297.2 158.69C299.089 161.544 301.91 163.827 305.293 165.24C308.677 166.652 312.465 167.128 316.16 166.605C323.203 165.545 330.397 165.545 337.44 166.605C341.16 167.049 344.945 166.49 348.299 165.002C351.653 163.515 354.421 161.167 356.24 158.266C356.396 158.033 356.604 157.83 356.85 157.668C357.096 157.506 357.375 157.389 357.673 157.323C357.971 157.258 358.28 157.245 358.583 157.285C358.887 157.326 359.178 157.419 359.44 157.56L376.32 166.181C376.604 166.304 376.852 166.482 377.046 166.703C377.24 166.923 377.375 167.18 377.44 167.453C377.57 167.709 377.638 167.986 377.638 168.266C377.638 168.546 377.57 168.823 377.44 169.078C375.599 171.923 374.774 175.193 375.074 178.459C375.373 181.726 376.784 184.835 379.12 187.381C383.666 192.355 387.284 197.937 389.84 203.917C391.101 207.04 393.405 209.753 396.447 211.696C399.489 213.639 403.127 214.721 406.88 214.8C407.198 214.79 407.515 214.838 407.811 214.941C408.108 215.044 408.377 215.2 408.602 215.399C408.827 215.598 409.003 215.835 409.12 216.097C409.237 216.359 409.291 216.639 409.28 216.92V233.88Z" fill="white"/>
<path d="M326.64 193.176C319.457 193.176 312.434 195.057 306.462 198.583C300.489 202.108 295.834 207.119 293.085 212.981C290.336 218.843 289.616 225.294 291.018 231.517C292.419 237.741 295.878 243.457 300.958 247.944C306.037 252.431 312.509 255.487 319.554 256.725C326.6 257.963 333.902 257.327 340.539 254.899C347.176 252.471 352.848 248.359 356.839 243.083C360.83 237.807 362.96 231.604 362.96 225.258C362.96 216.75 359.133 208.589 352.322 202.573C345.511 196.556 336.273 193.176 326.64 193.176ZM326.64 243.208C322.621 243.208 318.692 242.155 315.351 240.183C312.009 238.21 309.405 235.407 307.867 232.127C306.329 228.848 305.926 225.239 306.71 221.757C307.494 218.275 309.43 215.077 312.272 212.566C315.113 210.056 318.734 208.347 322.676 207.654C326.617 206.961 330.703 207.317 334.416 208.675C338.129 210.034 341.303 212.335 343.535 215.286C345.768 218.238 346.96 221.708 346.96 225.258C346.918 229.994 344.758 234.524 340.952 237.859C337.146 241.195 332.002 243.067 326.64 243.066V243.208Z" fill="white"/>
</svg>
