<svg width="426" height="307" viewBox="0 0 426 307" fill="none" xmlns="http://www.w3.org/2000/svg">
<path d="M34.6399 35.3337C39.0582 35.3337 42.6399 32.1697 42.6399 28.2667C42.6399 24.3637 39.0582 21.2007 34.6399 21.2007C30.2216 21.2007 26.6399 24.3637 26.6399 28.2667C26.6399 32.1697 30.2216 35.3337 34.6399 35.3337Z" fill="black"/>
<path d="M88 35.3337C92.418 35.3337 96 32.1697 96 28.2667C96 24.3637 92.418 21.2007 88 21.2007C83.582 21.2007 80 24.3637 80 28.2667C80 32.1697 83.582 35.3337 88 35.3337Z" fill="black"/>
<path d="M61.3601 35.3337C65.7781 35.3337 69.3601 32.1697 69.3601 28.2667C69.3601 24.3637 65.7781 21.2007 61.3601 21.2007C56.9418 21.2007 53.3601 24.3637 53.3601 28.2667C53.3601 32.1697 56.9418 35.3337 61.3601 35.3337Z" fill="black"/>
<path d="M120 130.805L144 109.605C145.506 108.274 146.353 106.47 146.353 104.588C146.353 102.706 145.506 100.901 144 99.5697C142.494 98.2397 140.45 97.4917 138.32 97.4917C136.19 97.4917 134.146 98.2397 132.64 99.5697L102.88 125.929C101.39 127.253 100.554 129.044 100.554 130.911C100.554 132.778 101.39 134.569 102.88 135.893L132.64 162.252C133.384 162.914 134.269 163.44 135.243 163.799C136.218 164.157 137.264 164.342 138.32 164.342C139.376 164.342 140.422 164.157 141.397 163.799C142.371 163.44 143.256 162.914 144 162.252C145.49 160.928 146.326 159.137 146.326 157.27C146.326 155.403 145.49 153.612 144 152.288L120 130.805Z" fill="black"/>
<path d="M234.56 162.11C236.059 163.426 238.086 164.165 240.2 164.165C242.313 164.165 244.341 163.426 245.84 162.11L275.68 136.104C277.17 134.78 278.006 132.989 278.006 131.122C278.006 129.255 277.17 127.464 275.68 126.14L245.84 99.7816C244.334 98.4596 242.295 97.7216 240.172 97.7276C238.049 97.7346 236.016 98.4856 234.52 99.8166C233.024 101.148 232.188 102.949 232.196 104.824C232.203 106.699 233.054 108.495 234.56 109.816L258.56 131.016L234.56 152.216C233.094 153.537 232.273 155.313 232.273 157.163C232.273 159.013 233.094 160.789 234.56 162.11Z" fill="black"/>
<path d="M208 101.831C207.087 101.364 206.078 101.06 205.032 100.939C203.986 100.818 202.923 100.88 201.904 101.123C200.885 101.366 199.931 101.785 199.096 102.355C198.261 102.925 197.563 103.636 197.04 104.445L167.52 150.237C166.941 151.042 166.553 151.941 166.377 152.882C166.202 153.822 166.244 154.784 166.501 155.71C166.758 156.635 167.224 157.506 167.871 158.268C168.518 159.031 169.334 159.67 170.268 160.147C171.202 160.624 172.236 160.929 173.307 161.044C174.378 161.159 175.464 161.081 176.5 160.815C177.537 160.55 178.501 160.102 179.336 159.498C180.172 158.895 180.86 158.149 181.36 157.304L211.2 111.724C211.758 110.896 212.119 109.976 212.26 109.02C212.4 108.065 212.318 107.094 212.019 106.167C211.719 105.24 211.208 104.378 210.517 103.632C209.826 102.886 208.969 102.273 208 101.831Z" fill="black"/>
<path d="M406.88 199.704C406.408 199.701 405.949 199.571 405.563 199.331C405.177 199.091 404.883 198.753 404.72 198.362C401.537 190.965 397.026 184.069 391.36 177.939C391.092 177.596 390.948 177.19 390.948 176.773C390.948 176.356 391.092 175.95 391.36 175.607C393.797 171.877 394.457 167.445 393.197 163.284C391.937 159.124 388.86 155.575 384.64 153.418L378.64 150.238V21.1996C378.64 15.5774 376.111 10.1851 371.611 6.2093C367.11 2.2336 361.005 0 354.64 0H24C17.6348 0 11.5303 2.2336 7.0294 6.2093C2.5286 10.1851 0 15.5774 0 21.1996V200.27C0.0211 204.631 1.9917 208.808 5.4828 211.892C8.9739 214.976 13.7028 216.716 18.64 216.735H128L120 242.882H109.36C101.568 242.886 94.005 245.212 87.894 249.482C81.783 253.752 77.48 259.717 75.68 266.414H56C53.8783 266.414 51.8434 267.158 50.3431 268.484C48.8429 269.809 48 271.606 48 273.48C48 275.355 48.8429 277.152 50.3431 278.477C51.8434 279.803 53.8783 280.547 56 280.547H259.76C259.624 282.235 259.814 283.932 260.32 285.564C260.92 287.637 261.987 289.582 263.458 291.282C264.929 292.982 266.773 294.402 268.88 295.458L285.76 304.079C287.856 305.142 290.168 305.83 292.565 306.103C294.962 306.376 297.396 306.23 299.729 305.672C302.061 305.114 304.247 304.156 306.16 302.852C308.073 301.548 309.677 299.924 310.88 298.072C311.139 297.712 311.512 297.426 311.953 297.25C312.393 297.075 312.882 297.017 313.36 297.083C322.148 298.426 331.132 298.426 339.92 297.083C340.407 297.013 340.906 297.078 341.349 297.267C341.793 297.457 342.16 297.763 342.4 298.143C344.031 300.609 346.368 302.652 349.177 304.067C351.986 305.481 355.167 306.216 358.4 306.199C361.625 306.227 364.801 305.495 367.6 304.079L384.48 295.458C386.576 294.39 388.411 292.965 389.88 291.267C391.35 289.569 392.423 287.631 393.04 285.564C393.677 283.51 393.842 281.364 393.526 279.252C393.21 277.141 392.419 275.106 391.2 273.268C390.925 272.915 390.777 272.496 390.777 272.067C390.777 271.638 390.925 271.219 391.2 270.866C396.848 264.751 401.358 257.881 404.56 250.514C404.713 250.117 405.004 249.773 405.392 249.531C405.78 249.29 406.245 249.164 406.72 249.171C411.594 249.152 416.261 247.434 419.708 244.39C423.154 241.346 425.099 237.223 425.12 232.918V215.675C425.037 211.438 423.083 207.397 419.676 204.414C416.269 201.43 411.677 199.741 406.88 199.704ZM16 21.1996C16 19.3256 16.8429 17.5286 18.3431 16.2031C19.8434 14.8779 21.8783 14.1333 24 14.1333H354.64C356.762 14.1333 358.797 14.8779 360.297 16.2031C361.797 17.5286 362.64 19.3256 362.64 21.1996V42.3996H16V21.1996ZM18.64 202.602C18.2933 202.602 17.95 202.541 17.6297 202.424C17.3094 202.307 17.0184 202.135 16.7732 201.919C16.5281 201.702 16.3336 201.445 16.201 201.162C16.0683 200.879 16 200.576 16 200.27V56.5336H362.64V143.171C358.854 142.283 354.846 142.49 351.203 143.762C347.561 145.034 344.475 147.303 342.4 150.238C342.151 150.586 341.789 150.86 341.361 151.024C340.932 151.188 340.458 151.234 340 151.156C331.205 149.884 322.235 149.884 313.44 151.156C312.981 151.245 312.503 151.203 312.072 151.039C311.642 150.874 311.281 150.594 311.04 150.238C309.838 148.385 308.233 146.761 306.318 145.459C304.402 144.157 302.214 143.202 299.879 142.65C297.544 142.099 295.108 141.96 292.713 142.244C290.317 142.527 288.008 143.227 285.92 144.302L269.04 152.923C266.938 153.967 265.097 155.376 263.626 157.063C262.155 158.751 261.085 160.684 260.48 162.746C259.201 166.912 259.833 171.356 262.24 175.112C262.532 175.446 262.69 175.856 262.69 176.278C262.69 176.7 262.532 177.11 262.24 177.444C256.574 183.574 252.063 190.47 248.88 197.867C248.717 198.258 248.423 198.597 248.037 198.836C247.651 199.076 247.192 199.207 246.72 199.21C242.802 199.215 238.988 200.329 235.84 202.39L18.64 202.602ZM232 242.882H136L144 216.735H228V232.918C228.051 236.538 229.458 240.042 232 242.882ZM251.84 257.015C253.669 260.273 255.754 263.414 258.08 266.414H92.56C94.07 263.606 96.45 261.233 99.423 259.57C102.396 257.907 105.841 257.021 109.36 257.015H251.84ZM409.28 232.918C409.28 233.48 409.027 234.019 408.577 234.417C408.127 234.814 407.517 235.038 406.88 235.038C403.154 235.046 399.517 236.049 396.447 237.915C393.378 239.782 391.019 242.424 389.68 245.496C387.123 251.454 383.504 257.013 378.96 261.962C376.617 264.518 375.203 267.64 374.903 270.919C374.603 274.197 375.432 277.48 377.28 280.335C377.409 280.578 377.475 280.844 377.475 281.112C377.475 281.381 377.409 281.646 377.28 281.89C377.21 282.17 377.075 282.435 376.882 282.666C376.689 282.898 376.443 283.09 376.16 283.232L359.52 291.571C359.242 291.708 358.936 291.794 358.62 291.825C358.304 291.856 357.984 291.832 357.679 291.753C357.374 291.674 357.09 291.542 356.843 291.366C356.596 291.189 356.391 290.97 356.24 290.723C354.349 287.875 351.524 285.601 348.139 284.201C344.754 282.8 340.968 282.339 337.28 282.879C330.237 283.939 323.043 283.939 316 282.879C312.304 282.346 308.512 282.817 305.126 284.231C301.74 285.644 298.92 287.933 297.04 290.794C296.708 291.268 296.184 291.612 295.574 291.756C294.965 291.901 294.316 291.834 293.76 291.571L276.88 282.95C276.597 282.808 276.351 282.615 276.158 282.384C275.965 282.152 275.83 281.888 275.76 281.607C275.631 281.364 275.565 281.098 275.565 280.83C275.565 280.561 275.631 280.296 275.76 280.052C277.587 277.191 278.403 273.913 278.103 270.639C277.804 267.364 276.403 264.244 274.08 261.679C269.495 256.743 265.848 251.182 263.28 245.214C261.938 242.223 259.613 239.655 256.605 237.841C253.596 236.028 250.042 235.051 246.4 235.038C245.763 235.038 245.153 234.814 244.703 234.417C244.253 234.019 244 233.48 244 232.918V215.675C243.989 215.394 244.043 215.114 244.16 214.852C244.277 214.591 244.453 214.353 244.678 214.154C244.903 213.955 245.172 213.799 245.469 213.696C245.765 213.593 246.082 213.545 246.4 213.555C250.115 213.542 253.739 212.537 256.795 210.67C259.851 208.803 262.195 206.163 263.52 203.096C266.07 197.12 269.719 191.557 274.32 186.631C276.643 184.066 278.044 180.946 278.343 177.672C278.643 174.397 277.827 171.119 276 168.258C275.87 168.002 275.802 167.725 275.802 167.445C275.802 167.165 275.87 166.888 276 166.632C276.065 166.359 276.2 166.103 276.394 165.882C276.588 165.662 276.836 165.483 277.12 165.36L294 156.739C294.393 156.643 294.807 156.643 295.2 156.739C295.6 156.744 295.993 156.836 296.342 157.009C296.692 157.182 296.987 157.429 297.2 157.728C299.089 160.582 301.91 162.865 305.293 164.278C308.677 165.69 312.465 166.166 316.16 165.643C323.203 164.583 330.397 164.583 337.44 165.643C341.16 166.087 344.945 165.528 348.299 164.04C351.653 162.553 354.421 160.205 356.24 157.304C356.396 157.071 356.604 156.868 356.85 156.706C357.096 156.544 357.375 156.427 357.673 156.361C357.971 156.296 358.28 156.283 358.583 156.323C358.887 156.364 359.178 156.457 359.44 156.598L376.32 165.219C376.604 165.342 376.852 165.52 377.046 165.741C377.24 165.961 377.375 166.218 377.44 166.491C377.57 166.747 377.638 167.024 377.638 167.304C377.638 167.584 377.57 167.861 377.44 168.116C375.599 170.961 374.774 174.231 375.074 177.497C375.373 180.764 376.784 183.873 379.12 186.419C383.666 191.393 387.284 196.975 389.84 202.955C391.101 206.078 393.405 208.791 396.447 210.734C399.489 212.677 403.127 213.759 406.88 213.838C407.198 213.828 407.515 213.876 407.811 213.979C408.108 214.082 408.377 214.238 408.602 214.437C408.827 214.636 409.003 214.873 409.12 215.135C409.237 215.397 409.291 215.677 409.28 215.958V232.918Z" fill="black"/>
<path d="M326.64 192.213C319.457 192.213 312.434 194.094 306.462 197.62C300.489 201.145 295.834 206.156 293.085 212.018C290.336 217.88 289.616 224.331 291.018 230.554C292.419 236.778 295.878 242.494 300.958 246.981C306.037 251.468 312.509 254.524 319.554 255.762C326.6 257 333.902 256.364 340.539 253.936C347.176 251.508 352.848 247.396 356.839 242.12C360.83 236.844 362.96 230.641 362.96 224.295C362.96 215.787 359.133 207.626 352.322 201.61C345.511 195.593 336.273 192.213 326.64 192.213ZM326.64 242.245C322.621 242.245 318.692 241.192 315.351 239.22C312.009 237.247 309.405 234.444 307.867 231.164C306.329 227.885 305.926 224.276 306.71 220.794C307.494 217.312 309.43 214.114 312.272 211.603C315.113 209.093 318.734 207.384 322.676 206.691C326.617 205.998 330.703 206.354 334.416 207.712C338.129 209.071 341.303 211.372 343.535 214.323C345.768 217.275 346.96 220.745 346.96 224.295C346.918 229.031 344.758 233.561 340.952 236.896C337.146 240.232 332.002 242.104 326.64 242.103V242.245Z" fill="black"/>
</svg>
