<svg width="50" height="50" viewBox="0 0 50 50" fill="none" xmlns="http://www.w3.org/2000/svg">
<path d="M12.8255 39.8437C12.6519 40.0391 12.4349 40.0065 12.1745 39.7461C11.8924 39.5074 11.849 39.3012 12.0443 39.1276C12.2179 38.9323 12.4349 38.9648 12.6953 39.2253C12.9557 39.464 12.9991 39.6701 12.8255 39.8437ZM11.4583 37.8581C11.6536 38.1185 11.6536 38.3247 11.4583 38.4766C11.2847 38.6068 11.1003 38.5308 10.9049 38.2487C10.7096 37.9666 10.7096 37.7713 10.9049 37.6628C11.1003 37.5108 11.2847 37.576 11.4583 37.8581ZM9.47266 35.9049C9.36415 36.0569 9.22309 36.0786 9.04948 35.9701C8.83246 35.8615 8.75651 35.7313 8.82161 35.5794C8.88672 35.4709 9.02778 35.4492 9.24479 35.5143C9.46181 35.6228 9.53776 35.753 9.47266 35.9049ZM10.4818 37.0117C10.3516 37.1636 10.178 37.1311 9.96094 36.9141C9.76562 36.6753 9.74392 36.5017 9.89583 36.3932C10.026 36.263 10.1997 36.2956 10.4167 36.4909C10.612 36.7296 10.6337 36.9032 10.4818 37.0117ZM14.681 40.6576C14.5942 40.918 14.388 40.9831 14.0625 40.8529C13.6936 40.7661 13.5525 40.6033 13.6393 40.3646C13.7261 40.1259 13.9323 40.0499 14.2578 40.1367C14.605 40.2452 14.7461 40.4188 14.681 40.6576ZM16.7318 40.8203C16.7318 41.059 16.5582 41.1784 16.2109 41.1784C15.842 41.2218 15.6576 41.1024 15.6576 40.8203C15.6576 40.5816 15.8312 40.4622 16.1784 40.4622C16.5473 40.4188 16.7318 40.5382 16.7318 40.8203ZM18.6198 40.4948C18.6632 40.7118 18.5113 40.8637 18.1641 40.9505C17.8168 41.0373 17.6215 40.9505 17.5781 40.6901C17.5347 40.4297 17.6866 40.2669 18.0339 40.2018C18.3811 40.1584 18.5764 40.2561 18.6198 40.4948ZM50 9.375V40.625C50 43.2075 49.0831 45.4156 47.2493 47.2493C45.4156 49.0831 43.2075 50 40.625 50H33.3333C32.9861 50 32.7203 49.9891 32.5358 49.9674C32.3513 49.9457 32.1398 49.8915 31.901 49.8047C31.6623 49.7179 31.4887 49.5605 31.3802 49.3327C31.2717 49.1048 31.2174 48.8064 31.2174 48.4375V40.6576C31.2174 38.5525 30.6532 37.0117 29.5247 36.0352C30.7617 35.9049 31.8739 35.7096 32.8613 35.4492C33.8487 35.1888 34.8687 34.7656 35.9212 34.1797C36.9737 33.5937 37.8526 32.8722 38.5579 32.015C39.2632 31.1578 39.8383 30.0184 40.2832 28.597C40.7281 27.1756 40.9505 25.5425 40.9505 23.6979C40.9505 21.072 40.0933 18.8368 38.3789 16.9922C39.1819 15.0174 39.0951 12.8038 38.1185 10.3516C37.5108 10.1562 36.6319 10.2756 35.4818 10.7096C34.3316 11.1437 33.3333 11.6211 32.487 12.1419L31.25 12.9232C29.2318 12.3589 27.1484 12.0768 25 12.0768C22.8516 12.0768 20.7682 12.3589 18.75 12.9232C18.4028 12.6845 17.9416 12.3915 17.3665 12.0443C16.7914 11.697 15.8854 11.2793 14.6484 10.791C13.4115 10.3027 12.4783 10.1562 11.849 10.3516C10.8941 12.8038 10.8181 15.0174 11.6211 16.9922C9.90668 18.8368 9.04948 21.072 9.04948 23.6979C9.04948 25.5425 9.27192 27.1701 9.7168 28.5807C10.1617 29.9913 10.7313 31.1306 11.4258 31.9987C12.1202 32.8668 12.9937 33.5937 14.0462 34.1797C15.0987 34.7656 16.1187 35.1888 17.1061 35.4492C18.0935 35.7096 19.2057 35.9049 20.4427 36.0352C19.5747 36.8164 19.043 37.934 18.8477 39.388C18.3919 39.605 17.9036 39.7678 17.3828 39.8763C16.862 39.9848 16.2435 40.0391 15.5273 40.0391C14.8112 40.0391 14.1005 39.8058 13.3952 39.3392C12.6899 38.8726 12.0877 38.1944 11.5885 37.3047C11.1762 36.6102 10.65 36.046 10.0098 35.612C9.36957 35.178 8.83246 34.9175 8.39844 34.8307L7.7474 34.7331C7.29167 34.7331 6.977 34.7819 6.80339 34.8796C6.62977 34.9772 6.57552 35.102 6.64062 35.2539C6.70573 35.4058 6.80339 35.5577 6.93359 35.7096C7.0638 35.8615 7.20486 35.9918 7.35677 36.1003L7.58464 36.263C8.06207 36.48 8.53407 36.8924 9.00065 37.5C9.46723 38.1076 9.80903 38.661 10.026 39.1602L10.3516 39.9089C10.6337 40.7335 11.1111 41.4008 11.7839 41.9108C12.4566 42.4208 13.1836 42.7463 13.9648 42.8874C14.7461 43.0284 15.5002 43.1044 16.2272 43.1152C16.9542 43.1261 17.5564 43.0881 18.0339 43.0013L18.7826 42.8711C18.7826 43.6957 18.788 44.8134 18.7988 46.224C18.8097 47.6345 18.8151 48.3724 18.8151 48.4375C18.8151 48.9149 18.6957 49.2784 18.457 49.528C18.2183 49.7776 17.9796 49.9186 17.7409 49.9512C17.5022 49.9837 17.1441 50 16.6667 50H9.375C6.79253 50 4.58442 49.0831 2.75065 47.2493C0.916884 45.4156 0 43.2075 0 40.625V9.375C0 6.79253 0.916884 4.58442 2.75065 2.75065C4.58442 0.916884 6.79253 0 9.375 0H40.625C43.2075 0 45.4156 0.916884 47.2493 2.75065C49.0831 4.58442 50 6.79253 50 9.375Z" fill="#FFFFFE"/>
</svg>
