<svg width="50" height="50" viewBox="0 0 50 50" fill="none" xmlns="http://www.w3.org/2000/svg">
<path fill-rule="evenodd" clip-rule="evenodd" d="M25 2.27272C12.385 2.27272 2.17392 12.8732 2.17392 25.9298C2.17392 35.5161 7.67938 43.767 15.6048 47.479C16.4333 47.867 17.2447 47.7135 17.8776 47.2185C18.5262 46.7111 18.9859 45.8376 18.9859 44.8105V43.5709L16.1587 43.1713C16.1381 43.1685 16.1177 43.165 16.0973 43.1609C14.5368 42.8442 13.4855 42.2724 12.7149 41.4483C12.066 40.7544 11.6707 39.9231 11.3356 39.2185C11.2959 39.1353 11.2571 39.0537 11.2189 38.9744C10.7947 38.0948 10.4924 37.4705 10.2038 36.9937C9.92335 36.5305 9.7039 36.2907 9.48773 36.1411C8.93656 35.7602 8.40898 35.1155 8.40898 34.3079C8.40898 33.8648 8.58021 33.412 8.95131 33.0913C9.301 32.7892 9.7216 32.6946 10.0872 32.6946C10.5507 32.6946 10.9855 32.8426 11.3486 33.0126C11.7196 33.1863 12.0869 33.4176 12.4309 33.6568C13.2681 34.2392 14.0936 34.9294 14.7917 35.7774C15.5187 36.6605 16.0324 37.2226 16.8092 37.3376C17.445 37.4318 18.0953 37.4346 18.6024 37.4105C18.6246 37.2848 18.6518 37.1518 18.6852 37.0137C18.7451 36.7659 18.8291 36.4846 18.9482 36.1935C18.373 36.0526 17.7491 35.8689 17.1218 35.6368C15.7577 35.132 14.2406 34.3489 13.2195 33.1579C12.0978 31.8496 11.4037 30.6837 11.016 29.317C10.6386 27.9868 10.5769 26.5463 10.5769 24.7707C10.5769 22.0557 11.7044 19.7655 12.5491 18.551C12.2715 17.6263 11.981 16.4255 11.8523 15.2864C11.7733 14.5868 11.7475 13.8464 11.8541 13.1834C11.9569 12.5452 12.2192 11.7632 12.9039 11.2899C13.5653 10.8327 14.3386 10.8514 14.9428 10.9704C15.5713 11.0941 16.2232 11.3657 16.8227 11.6753C17.799 12.1794 18.7704 12.8548 19.4983 13.4252C20.753 13.0406 22.9712 12.5462 24.9762 12.5002C24.9921 12.4999 25.0079 12.4999 25.0237 12.5002C27.0304 12.5463 29.1506 13.0406 30.3727 13.4233C31.1002 12.8534 32.0706 12.1789 33.0458 11.6753C33.6454 11.3657 34.2973 11.0941 34.9258 10.9704C35.53 10.8514 36.3033 10.8327 36.9648 11.2899C37.6494 11.7632 37.9117 12.5452 38.0144 13.1834C38.121 13.8464 38.0952 14.5868 38.0163 15.2864C37.8875 16.4255 37.5971 17.6263 37.3196 18.551C38.1642 19.7655 39.2917 22.0557 39.2917 24.7707C39.2917 26.5463 39.23 27.9868 38.8527 29.317C38.465 30.6837 37.7708 31.8496 36.6492 33.1579C35.6281 34.3489 34.1108 35.132 32.7469 35.6368C31.9767 35.9218 31.2117 36.1337 30.5356 36.2831C30.7917 37.0913 30.8827 37.7457 30.8827 38.1211V44.8381C30.8827 45.8618 31.3396 46.7337 31.9858 47.2422C32.6167 47.7387 33.4262 47.8955 34.255 47.5146C42.2529 43.8366 47.826 35.5659 47.826 25.9298C47.826 12.8732 37.615 2.27272 25 2.27272ZM19.7421 39.5876C19.202 39.6683 19.739 39.5883 19.739 39.5883L19.7334 39.5889L19.7159 39.5916L19.6566 39.5994C19.6066 39.6059 19.536 39.6146 19.4477 39.6239C19.2715 39.6426 19.0232 39.6648 18.7261 39.6796C18.138 39.7087 17.3313 39.7103 16.5042 39.5879C14.8552 39.3435 13.8551 38.1257 13.2059 37.3352C13.1849 37.3096 13.1643 37.2846 13.144 37.2598C12.9356 37.0066 12.7074 36.7663 12.4625 36.537C12.6778 36.9511 12.8995 37.4109 13.1392 37.9079L13.16 37.9511C13.1972 38.0283 13.233 38.1029 13.2677 38.175C13.6312 38.9324 13.8727 39.4355 14.2694 39.8596C14.6558 40.2729 15.2611 40.6716 16.4817 40.9237L20.2185 41.4518C20.7576 41.5281 21.1598 42.0092 21.1598 42.5779V44.8105C21.1598 46.5507 20.3795 48.0998 19.18 49.0381C17.9648 49.9887 16.3199 50.3044 14.716 49.5531C6.04575 45.4924 0 36.4535 0 25.9298C0 11.6003 11.2014 0 25 0C38.7985 0 50 11.6003 50 25.9298C50 36.5118 43.8775 45.5724 35.1302 49.5948C33.5269 50.3322 31.8881 50.0098 30.6785 49.0581C29.4844 48.1183 28.7087 46.5726 28.7087 44.8381V38.1211C28.7087 37.9689 28.6069 37.09 28.0369 35.9081C27.8765 35.5755 27.8821 35.182 28.0519 34.8546C28.2219 34.5274 28.5344 34.3079 28.8883 34.267C29.6012 34.1848 30.8062 33.9439 32.0215 33.4944C33.259 33.0363 34.3696 32.4118 35.0302 31.6411C36.0108 30.4972 36.4992 29.6198 36.7685 28.6707C37.0481 27.685 37.1177 26.5372 37.1177 24.7707C37.1177 22.2909 35.8685 20.2065 35.2931 19.5352C35.0279 19.226 34.9452 18.7901 35.0775 18.3986C35.3671 17.5408 35.7229 16.2093 35.8573 15.0198C35.925 14.4207 35.9287 13.9214 35.8706 13.5604C35.8317 13.3176 35.7787 13.2172 35.7585 13.1855C35.721 13.1749 35.5979 13.1507 35.3281 13.2038C34.9733 13.2737 34.5215 13.4482 34.0085 13.713C32.9885 14.2397 31.9262 15.0186 31.266 15.5748C30.9706 15.8237 30.5723 15.8935 30.2154 15.7589C29.3773 15.4429 27.0887 14.8252 25 14.7729C22.9019 14.8254 20.4821 15.4464 19.6533 15.7589C19.2963 15.8935 18.898 15.8237 18.6025 15.5748C17.9423 15.0186 16.88 14.2397 15.86 13.713C15.3471 13.4482 14.8953 13.2737 14.5406 13.2038C14.2706 13.1507 14.1475 13.1749 14.1102 13.1855C14.0899 13.2172 14.037 13.3176 13.9979 13.5604C13.9399 13.9214 13.9436 14.4207 14.0112 15.0198C14.1456 16.2093 14.5016 17.5408 14.7911 18.3986C14.9233 18.7901 14.8407 19.226 14.5755 19.5352C14 20.2065 12.7508 22.2909 12.7508 24.7707C12.7508 26.5372 12.8205 27.685 13.1001 28.6707C13.3694 29.6198 13.8577 30.4972 14.8383 31.6411C15.499 32.4118 16.6097 33.0363 17.8472 33.4944C19.0623 33.9439 20.2674 34.1848 20.9802 34.267C21.4283 34.3185 21.7994 34.6539 21.9129 35.1098C22.0267 35.5657 21.8594 36.0479 21.4927 36.3216C21.1481 36.5785 20.9215 37.0387 20.7928 37.5707C20.7321 37.8218 20.7023 38.0529 20.6881 38.2203C20.681 38.3031 20.678 38.3679 20.6767 38.4085L20.6758 38.4498C20.6819 39.02 20.2822 39.5072 19.7421 39.5876Z" fill="black"/>
</svg>
