<svg width="50" height="50" viewBox="0 0 50 50" fill="none" xmlns="http://www.w3.org/2000/svg">
<path d="M41.9054 50H8.09586C3.63172 50 0 46.3675 0 41.9019V8.09811C0 3.63251 3.63172 0 8.09586 0H41.9054C46.3683 0 50 3.63251 50 8.09811V41.9032C50 46.3688 46.3683 50 41.9054 50ZM16.8951 41.3353H16.9054V19.7679H10.2111V41.3353H16.8938H16.8951ZM13.5538 16.8223C14.0627 16.823 14.5669 16.723 15.0372 16.5281C15.5076 16.3332 15.935 16.0472 16.2949 15.6864C16.6548 15.3257 16.9401 14.8973 17.1346 14.4258C17.329 13.9543 17.4288 13.449 17.4281 12.9389C17.4261 11.9095 17.0172 10.9229 16.2911 10.1951C15.5649 9.46725 14.5807 9.05744 13.5538 9.05539C12.5263 9.05574 11.5411 9.465 10.8146 10.1932C10.0881 10.9214 9.67976 11.909 9.67942 12.9389C9.67976 13.9687 10.0881 14.9563 10.8146 15.6845C11.5411 16.4127 12.5263 16.822 13.5538 16.8223ZM41.9441 41.3366V29.5128C41.9441 23.7031 40.6858 19.2337 33.9231 19.2337C30.6721 19.2337 28.4898 21.0189 27.5928 22.7135H27.5025V19.7679H21.0921V41.3353H27.7748V30.6629C27.7748 27.8479 28.3078 25.1248 31.7885 25.1248C35.2111 25.1248 35.2615 28.3434 35.2615 30.844V41.3353H41.9441V41.3366Z" fill="#FFFFFE"/>
</svg>
