<svg width="50" height="50" viewBox="0 0 50 50" fill="none" xmlns="http://www.w3.org/2000/svg">
<g clip-path="url(#clip0_22_46)">
<path d="M46.0938 0H3.90625C1.74805 0 0 1.74805 0 3.90625V46.0938C0 48.252 1.74805 50 3.90625 50H46.0938C48.252 50 50 48.252 50 46.0938V3.90625C50 1.74805 48.252 0 46.0938 0ZM47.0703 46.0938C47.0703 46.6309 46.6309 47.0703 46.0938 47.0703H3.90625C3.36914 47.0703 2.92969 46.6309 2.92969 46.0938V3.90625C2.92969 3.36914 3.36914 2.92969 3.90625 2.92969H46.0938C46.6309 2.92969 47.0703 3.36914 47.0703 3.90625V46.0938Z" fill="black"/>
<path d="M18.0078 19.8633H13.1348V35.459H18.0078V19.8633Z" fill="black"/>
<path d="M31.3184 19.7168C28.5254 19.7168 26.7773 21.2402 26.4551 22.3145V19.8633H20.9766C21.0449 21.1621 20.9766 35.459 20.9766 35.459H26.4551V27.0312C26.4551 26.5527 26.4355 26.084 26.5723 25.752C26.9434 24.8145 27.7539 23.8379 29.209 23.8379C31.1133 23.8379 31.9727 25.2832 31.9727 27.3926V35.459H37.5V26.7871C37.5 21.9629 34.7852 19.7168 31.3184 19.7168Z" fill="black"/>
<path d="M15.4688 12.5C13.6719 12.5 12.4902 13.6621 12.4902 15.2051C12.4902 16.7188 13.6328 17.9102 15.4004 17.9102H15.4395C17.2754 17.9102 18.418 16.709 18.4082 15.2051C18.3691 13.6621 17.2656 12.5 15.4688 12.5Z" fill="black"/>
</g>
<defs>
<clipPath id="clip0_22_46">
<rect width="50" height="50" fill="white"/>
</clipPath>
</defs>
</svg>
