<svg width="50" height="50" viewBox="0 0 50 50" fill="none" xmlns="http://www.w3.org/2000/svg">
<path fill-rule="evenodd" clip-rule="evenodd" d="M0.68 4.875C1.49012e-07 6.78571 0 9.28571 0 14.2857V35.7143C0 40.7143 1.49012e-07 43.2143 0.68 45.125C1.27974 46.8046 2.23627 48.1698 3.4125 49.025C4.75 50 6.5 50 10 50H40C43.5 50 45.25 50 46.5875 49.025C47.7628 48.1692 48.7184 46.804 49.3175 45.125C50 43.2143 50 40.7143 50 35.7143V14.2857C50 9.28571 50 6.78571 49.3175 4.875C48.7188 3.19466 47.7632 1.8282 46.5875 0.971428C45.25 -6.38621e-07 43.5 0 40 0H10C6.5 0 4.75 -6.38621e-07 3.4125 0.971428C2.23588 1.82759 1.27931 3.19412 0.68 4.875ZM6.6175 7.14286H43.3825C43.6509 7.14239 43.9123 7.26535 44.128 7.49355C44.3437 7.72175 44.5022 8.04307 44.5802 8.40998C44.6581 8.77688 44.6513 9.16989 44.5608 9.53085C44.4703 9.89182 44.3008 10.2016 44.0775 10.4143L26.39 27.3143C25.9787 27.7074 25.4949 27.9172 25 27.9172C24.5051 27.9172 24.0213 27.7074 23.61 27.3143L5.9225 10.4143C5.69919 10.2016 5.52974 9.89182 5.43921 9.53085C5.34869 9.16989 5.34189 8.77688 5.41984 8.40998C5.49779 8.04307 5.65634 7.72175 5.87203 7.49355C6.08772 7.26535 6.3491 7.14239 6.6175 7.14286Z" fill="#FFFFFE"/>
</svg>
