<svg width="51" height="50" viewBox="0 0 51 50" fill="none" xmlns="http://www.w3.org/2000/svg">
<path fill-rule="evenodd" clip-rule="evenodd" d="M2.02751 3.64975C3.28369 1.46634 5.32796 0 7.66669 0H43.6667C46.0054 0 48.0497 1.46634 49.3059 3.64975C50.1649 5.14272 50.6667 6.98438 50.6667 8.95834V41.0416C50.6667 45.8813 47.6177 50 43.6667 50H7.66669C3.71579 50 0.666687 45.8813 0.666687 41.0416V8.95834C0.666687 6.98434 1.16854 5.14272 2.02751 3.64975ZM7.99844 6.25L23.8162 28.0147C24.8082 29.3797 26.5252 29.3797 27.5172 28.0147L43.3349 6.25H7.99844ZM45.6667 12.3364L31.2179 32.2175C28.2419 36.3122 23.0914 36.3122 20.1154 32.2175L5.66669 12.3364V41.0416C5.66669 42.6456 6.64704 43.75 7.66669 43.75H43.6667C44.6864 43.75 45.6667 42.6456 45.6667 41.0416V12.3364Z" fill="black"/>
</svg>
